<!-- Generated by IcoMoon.io -->
<svg version="1.1" xmlns="http://www.w3.org/2000/svg" width="24" height="24" viewBox="0 0 24 24">
<title>user-secret</title>
<path d="m10.273882,22.143242l1.294588,-6.458446l-1.294588,-1.84527l-1.726118,-0.922635l1.726118,9.226351zm3.452235,0l1.726118,-9.226351l-1.726118,0.922635l-1.294588,1.84527l1.294588,6.458446zm2.157647,-14.560104c-0.013809,-0.028602 -0.026755,-0.058126 -0.054373,-0.086728c-0.121691,-0.100567 -1.092633,-0.115329 -1.294588,-0.115329c-0.768985,0 -1.496544,0.115329 -2.251721,0.274023c-0.094073,0.028602 -0.18901,0.028602 -0.283083,0.028602s-0.18901,0 -0.283083,-0.028602c-0.755177,-0.158693 -1.483598,-0.274023 -2.251721,-0.274023c-0.201956,0 -1.172897,0.014762 -1.294588,0.115329c-0.026755,0.028602 -0.040564,0.058126 -0.054373,0.086728c0.013809,0.130092 0.026755,0.25926 0.054373,0.389352c0.081128,0.115329 0.148446,0.071966 0.201956,0.245421c0.350402,1.023202 0.512657,1.816668 1.726118,1.816668c1.739927,0 1.254025,-1.715179 1.820191,-1.715179l0.161392,0c0.566167,0 0.081128,1.715179 1.820191,1.715179c1.213461,0 1.375716,-0.792544 1.726118,-1.816668c0.054373,-0.172533 0.121691,-0.130092 0.201956,-0.245421c0.026755,-0.130092 0.040564,-0.25926 0.054373,-0.389352l0.000863,0zm5.609883,12.67147c0,2.349952 -1.443034,3.733904 -3.600682,3.733904l-11.785932,0c-2.157647,0 -3.600682,-1.383953 -3.600682,-3.733904c0,-2.609212 0.431529,-6.559013 2.939578,-7.85716l-1.213461,-3.171097l2.886069,0c-0.18901,-0.591409 -0.296892,-1.21142 -0.296892,-1.84527c0,-0.158693 0.013809,-0.317386 0.026755,-0.461318c-0.525603,-0.115329 -2.615931,-0.576647 -2.615931,-1.383953c0,-0.85067 2.292284,-1.311987 2.831696,-1.427316c0.283083,-1.081328 0.957132,-2.724541 1.64499,-3.575211c0.270137,-0.331226 0.60673,-0.533283 1.025314,-0.533283c0.809549,0 1.45598,0.894033 2.26553,0.894033s1.45598,-0.894033 2.26553,-0.894033c0.41772,0 0.755177,0.202057 1.025314,0.533283c0.687858,0.85067 1.361907,2.493883 1.64499,3.575211c0.539412,0.115329 2.831696,0.576647 2.831696,1.427316c0,0.807306 -2.090329,1.268623 -2.615931,1.383953c0.067319,0.778704 -0.026755,1.556485 -0.270137,2.306588l2.886069,0l-1.105578,3.243985c2.413976,1.340589 2.831696,5.218424 2.831696,7.784272z"></path>
</svg>
