<!-- Generated by IcoMoon.io -->
<svg version="1.1" xmlns="http://www.w3.org/2000/svg" width="24" height="24" viewBox="0 0 24 24">
<title>user</title>
<path d="m21.966386,19.853793c0,2.274611 -1.494958,4.129401 -3.316813,4.129401l-13.299146,0c-1.821855,0 -3.316813,-1.853793 -3.316813,-4.129401c0,-4.09749 1.012585,-8.834185 5.091827,-8.834185c1.261745,1.230543 2.97397,1.994398 4.87456,1.994398s3.612815,-0.763854 4.87456,-1.994398c4.080239,0 5.091827,4.736695 5.091827,8.834185zm-3.986555,-13.820179c0,3.30372 -2.678965,5.983193 -5.979832,5.983193s-5.979832,-2.680471 -5.979832,-5.983193s2.678965,-5.983193 5.979832,-5.983193s5.979832,2.680471 5.979832,5.983193z"></path>
</svg>
