<!-- Generated by IcoMoon.io -->
<svg version="1.1" xmlns="http://www.w3.org/2000/svg" width="32" height="24" viewBox="0 0 32 24">
<title>user-plus</title>
<path d="m10.998047,12.000032c-3.293588,0 -5.964844,-2.66 -5.964844,-5.937501s2.67225,-5.937501 5.964844,-5.937501s5.964844,2.66 5.964844,5.937501s-2.67225,5.937501 -5.964844,5.937501zm14.912111,1.979167l5.467774,0c0.264441,0 0.49707,0.231563 0.49707,0.494792l0,2.96875c0,0.263229 -0.232629,0.494792 -0.49707,0.494792l-5.467774,0l0,5.442709c0,0.263229 -0.232629,0.494792 -0.49707,0.494792l-2.982422,0c-0.264441,0 -0.49707,-0.231563 -0.49707,-0.494792l0,-5.442709l-5.467774,0c-0.264441,0 -0.49707,-0.231563 -0.49707,-0.494792l0,-2.96875c0,-0.263229 0.232629,-0.494792 0.49707,-0.494792l5.467774,0l0,-5.442709c0,-0.263229 0.232629,-0.494792 0.49707,-0.494792l2.982422,0c0.264441,0 0.49707,0.231563 0.49707,0.494792l0,5.442709zm-11.432619,3.463542c0,1.082604 0.900692,1.979167 1.988281,1.979167l3.976563,0l0,3.680261c-0.761512,0.556146 -1.72384,0.772865 -2.656344,0.772865l-13.575986,0c-2.485352,0 -4.147555,-1.484375 -4.147555,-4.004844c0,-3.494219 0.823149,-8.859741 5.374325,-8.859741c0.248535,0 0.419527,0.107865 0.605432,0.263229c1.522029,1.159792 2.998328,1.886146 4.954797,1.886146s3.432768,-0.726354 4.954797,-1.886146c0.185904,-0.154375 0.356897,-0.263229 0.605432,-0.263229c1.320219,0 2.485352,0.494792 3.371131,1.484375l-3.463586,0c-1.08759,0 -1.988281,0.896563 -1.988281,1.979167l0,2.96875l0.000994,0z"></path>
</svg>
